<svg enable-background="new 0 0 483.674 483.674" viewBox="0 0 483.674 483.674" xmlns="http://www.w3.org/2000/svg"><path d="m452.183 135.824h-33.798l-5.936-45.784c-3.573-27.664-27.305-48.519-55.208-48.519h-73.617c-27.9 0-51.624 20.855-55.206 48.51l-5.928 45.793h-71.678v-22.121c0-9.769-7.917-17.681-17.677-17.681h-56.664c-9.759 0-17.685 7.913-17.685 17.681v22.121h-27.297c-17.401 0-31.489 14.1-31.489 31.49v243.35c0 17.39 14.088 31.49 31.489 31.49h420.693c17.404 0 31.491-14.1 31.491-31.49v-243.35c.001-17.391-14.086-31.49-31.49-31.49zm-212.364 285.081c-70.898 0-128.385-57.484-128.385-128.391 0-63.647 46.373-116.336 107.133-126.483 6.928-1.157 13.996-1.904 21.252-1.904 31.147 0 59.691 11.107 81.924 29.551 28.388 23.546 46.474 59.082 46.474 98.836 0 70.906-57.498 128.391-128.398 128.391zm31.431-285.081 5.131-39.582c.474-3.623 3.587-6.353 7.242-6.353h73.617c3.655 0 6.777 2.73 7.244 6.361l5.139 39.573h-98.373zm144.154 96.736c-15.73 0-28.461-12.746-28.461-28.467 0-3.685.748-7.18 2.031-10.415 4.154-10.556 14.389-18.05 26.43-18.05 2.912 0 5.67.566 8.334 1.375 11.633 3.583 20.134 14.281 20.134 27.09 0 15.72-12.739 28.467-28.468 28.467z"/><path d="m239.819 197.929c-52.161 0-94.595 42.434-94.595 94.585 0 52.155 42.433 94.588 94.595 94.588 52.165 0 94.597-42.433 94.597-94.588 0-52.152-42.432-94.585-94.597-94.585zm0 156.928c-34.384 0-62.345-27.963-62.345-62.343 0-34.377 27.961-62.34 62.345-62.34 34.388 0 62.35 27.963 62.35 62.34 0 34.38-27.962 62.343-62.35 62.343z"/></svg>